<svg xmlns="http://www.w3.org/2000/svg" xmlns:xlink="http://www.w3.org/1999/xlink" viewBox="0 0 181.6 147.45"><defs><style>.cls-1{fill:#f64444;}.cls-2{fill:url(#radial-gradient);}.cls-3{fill:url(#radial-gradient-2);}.cls-4{fill:url(#radial-gradient-3);}.cls-5{fill:url(#radial-gradient-4);}</style><radialGradient id="radial-gradient" cx="137.86" cy="112.84" r="0.01" gradientUnits="userSpaceOnUse"><stop offset="0.39" stop-color="#f64444" stop-opacity="0"/><stop offset="0.81" stop-color="#c81854"/></radialGradient><radialGradient id="radial-gradient-2" cx="137.86" cy="112.84" r="0.01" gradientTransform="translate(0 -38.56) scale(1 1.34)" xlink:href="#radial-gradient"/><radialGradient id="radial-gradient-3" cx="-2639.66" cy="135.78" r="3.36" gradientTransform="matrix(-16.04, 28.13, 39.49, 22.52, -47583.97, 71170.15)" gradientUnits="userSpaceOnUse"><stop offset="0.51" stop-color="#f64444" stop-opacity="0"/><stop offset="1" stop-color="#c81854"/></radialGradient><radialGradient id="radial-gradient-4" cx="-2589.14" cy="149.22" r="3.36" gradientTransform="matrix(0, 26.77, 37.67, 0, -5450.33, 69337.7)" gradientUnits="userSpaceOnUse"><stop offset="0.38" stop-color="#f64444" stop-opacity="0"/><stop offset="0.85" stop-color="#c81854"/></radialGradient></defs><g id="Layer_2" data-name="Layer 2"><g id="Layer_1-2" data-name="Layer 1"><path class="cls-1" d="M137.85,112.84h0Z"/><path class="cls-2" d="M137.85,112.84h0Z"/><path class="cls-3" d="M137.85,112.85h0Z"/><path d="M11.24,139.79l-2.05-5.85-2,5.85Zm1.22,3.48H5.92l-1,3H0l6.69-17.59h5l6.69,17.59H13.51Zm12-14.54v13.72H30v3.87h-10V128.73Zm17.45,3.88h-5.5v2.94h5v3.87h-5v6.9H31.86V128.73H41.94ZM53,139.79,51,133.94l-2,5.85Zm1.22,3.48H47.72l-1,3H41.79l6.7-17.59h5l6.69,17.59H55.3Zm17.66-11.91-2.15,1.27a3.69,3.69,0,0,0-1.15-1.37,3.06,3.06,0,0,0-3.3.27,1.92,1.92,0,0,0-.73,1.55c0,.85.64,1.54,1.91,2.07l1.76.72A7.47,7.47,0,0,1,71.38,138a4.76,4.76,0,0,1,1,3.06,5.39,5.39,0,0,1-1.62,4,5.54,5.54,0,0,1-4,1.59,5.4,5.4,0,0,1-3.78-1.35,6.31,6.31,0,0,1-1.84-3.82l2.69-.59a4.62,4.62,0,0,0,.64,2.14,3,3,0,0,0,4.45.31,2.88,2.88,0,0,0,.82-2.11,3,3,0,0,0-.14-.93,2.22,2.22,0,0,0-.45-.79,3.2,3.2,0,0,0-.77-.67,7.5,7.5,0,0,0-1.14-.61l-1.7-.7q-3.61-1.53-3.61-4.47a4.23,4.23,0,0,1,1.51-3.31,5.46,5.46,0,0,1,3.77-1.35A5.25,5.25,0,0,1,71.91,131.36Zm2.32,6.09A8.59,8.59,0,0,1,77,131.07a9,9,0,0,1,6.51-2.66,9.18,9.18,0,0,1,9.15,9.14A8.64,8.64,0,0,1,89.9,144a9.3,9.3,0,0,1-12.69.29A8.63,8.63,0,0,1,74.23,137.45Zm2.67,0a6.38,6.38,0,0,0,2,4.8,6.48,6.48,0,0,0,9.17,0,6.83,6.83,0,0,0,0-9.43,6.2,6.2,0,0,0-4.62-1.91,6.49,6.49,0,0,0-6.53,6.58Zm27.36-6.25H98.13v4.23h5.92V138H98.13v8.37H95.48V128.74h8.78Zm7.47,0v15.09h-2.65V131.23h-4v-2.49h10.73v2.49Zm7.85-2.49,4.58,11.75L129,127.88l4.57,12.61,4.87-11.75h2.88l-7.86,18.7L128.89,135l-4.72,12.47-7.47-18.71Zm32.24,13.31h-7.53l-2,4.27h-2.86l8.7-18.69,8.4,18.69h-2.91Zm-1.08-2.49-2.61-6-2.74,6Zm13.53-.73,5.44,7.49h-3.24l-5-7.2H161v7.2h-2.65V128.74h3.11c2.32,0,4,.43,5,1.31a4.8,4.8,0,0,1,1.71,3.85,5,5,0,0,1-1.07,3.21A4.77,4.77,0,0,1,164.27,138.83Zm-3.31-2h.85q3.76,0,3.77-2.88c0-1.8-1.23-2.7-3.67-2.7H161Zm20.64-5.58h-7v4.23h6.85V138h-6.85v5.88h7v2.49h-9.7V128.74h9.7Z"/><path class="cls-1" d="M61,57.41,29.12,109.5a3.1,3.1,0,0,0,2.66,4.71h90.4a23.49,23.49,0,0,0,1.5-8.62,20.08,20.08,0,0,0-1-6.66l0-.08,0-.09a14.44,14.44,0,0,0-2.94-5.17l-.07-.07-.06-.07a24,24,0,0,0-5.76-5l0,0,0,0a59.65,59.65,0,0,0-9.51-5L88.63,77h0c-11.6-4.88-20.75-11.08-27-18.81Z"/><path class="cls-1" d="M67.47,46.81,95.2,1.49a3.12,3.12,0,0,1,5.32,0l49.29,80.56a21.15,21.15,0,0,1-15.74,32,36.64,36.64,0,0,0,1-8.49,31,31,0,0,0-1.65-10.31,25.71,25.71,0,0,0-5.11-9A35.42,35.42,0,0,0,119.94,79a71.76,71.76,0,0,0-11.3-6h0L93,66.59C82.56,62.19,75.17,57,70.42,51.09A31.68,31.68,0,0,1,67.47,46.81Z"/><path class="cls-4" d="M67.47,46.81,95.2,1.49a3.12,3.12,0,0,1,5.32,0l49.29,80.56a21.15,21.15,0,0,1-15.74,32,36.64,36.64,0,0,0,1-8.49,31,31,0,0,0-1.65-10.31,25.71,25.71,0,0,0-5.11-9A35.42,35.42,0,0,0,119.94,79a71.76,71.76,0,0,0-11.3-6h0L93,66.59C82.56,62.19,75.17,57,70.42,51.09A31.68,31.68,0,0,1,67.47,46.81Z"/><path class="cls-5" d="M67.47,46.81,95.2,1.49a3.12,3.12,0,0,1,5.32,0l49.29,80.56a21.15,21.15,0,0,1-15.74,32,36.64,36.64,0,0,0,1-8.49,31,31,0,0,0-1.65-10.31,25.71,25.71,0,0,0-5.11-9A35.42,35.42,0,0,0,119.94,79a71.76,71.76,0,0,0-11.3-6h0L93,66.59C82.56,62.19,75.17,57,70.42,51.09A31.68,31.68,0,0,1,67.47,46.81Z"/></g></g></svg>